<svg id="Layer_35" enable-background="new 0 0 64 64" height="512" viewBox="0 0 64 64" width="512" xmlns="http://www.w3.org/2000/svg" xmlns:xlink="http://www.w3.org/1999/xlink"><linearGradient id="SVGID_1_" gradientUnits="userSpaceOnUse" x1="31.895" x2="31.895" y1="63" y2=".481"><stop offset="0" stop-color="#9f2fff"/><stop offset="1" stop-color="#0bb1d3"/></linearGradient><path d="m23 23c3.309 0 6-2.691 6-6s-2.691-6-6-6-6 2.691-6 6 2.691 6 6 6zm0-10c2.206 0 4 1.794 4 4s-1.794 4-4 4-4-1.794-4-4 1.794-4 4-4zm-15.917 12.542-.19.765.839.838-3.062 3.937 4.248 4.248 3.938-3.062.839.839.764-.191c.794-.198 1.573-.439 2.344-.701l7.197 7.199 2-2v-10.264c.825-.666 1.627-1.364 2.381-2.118l1.841-1.84c5.661-5.661 8.778-13.187 8.778-21.192v-1h-1c-8.005 0-15.531 3.118-21.192 8.778l-1.841 1.84c-.754.754-1.452 1.556-2.118 2.381h-10.263l-2 2 7.198 7.198c-.262.772-.503 1.552-.701 2.345zm.248 5.375 5.763-7.409 3.398 3.398-7.409 5.762zm16.669 5.669-5.152-5.151c1.805-.763 3.531-1.697 5.152-2.796zm11.971-27.029-5.529-5.529c2.11-.589 4.302-.931 6.54-1.011-.079 2.239-.422 4.43-1.011 6.54zm-19.59 3.476 1.841-1.84c2.907-2.906 6.342-5.089 10.087-6.47l6.969 6.969c-1.381 3.745-3.564 7.18-6.47 10.087l-1.841 1.84c-3.375 3.375-7.559 5.815-12.14 7.116l4.681-3.641-6.602-6.602-3.641 4.682c1.301-4.582 3.742-8.767 7.116-12.141zm-12.967 2.967h7.947c-1.099 1.621-2.033 3.346-2.795 5.151zm45.326 24.655-1.857.744-.812-2.027 1.857-.744zm5.113 12.783 4.854 4.854-1.414 1.414-5.146-5.146-4.454-11.135 1.857-.742zm-2.176-18.438h-9.091l-10.23 10.23-2.821-4.23h-8.949l-19.586 19.586v2.414h62v-7.414l-5.147-5.147zm-12.677 26h-35.586l18-18h7.051l5.703 8.555 4.832 4.859zm22 0h-20v-5.414l-5.223-5.223-2.291-3.436 9.928-9.927h6.909l5.824 14.562 4.853 4.852zm-47.364-7.05 1.414 1.414-1.414 1.414-1.414-1.414zm2.829-2.829 1.414 1.414-1.414 1.414-1.414-1.414zm2.828-2.828 1.414 1.414-1.414 1.414-1.414-1.414zm-8.485 8.485 1.414 1.414-1.414 1.414-1.414-1.414zm17.002-10.866-1.664 1.109-.978-1.467 1.664-1.109zm4.967 7.451.95.95-1.414 1.414-1.146-1.173-4.118-6.178 1.664-1.109zm21.223-52.882 9.204 10.519h-4.204v30h-2v-32h1.796l-4.796-5.481-4.796 5.481h1.796v24h-2v-22h-4.204zm5 44.519h-2v-2h2zm-15-16h-2v-4h1.796l-4.796-5.481-4.796 5.481h1.796v14h-2v-12h-4.204l9.204-10.519 9.204 10.519h-4.204zm-2 2h2v2h-2z" fill="url(#SVGID_1_)"/></svg>