<svg id="Layer_35" enable-background="new 0 0 64 64" height="512" viewBox="0 0 64 64" width="512" xmlns="http://www.w3.org/2000/svg" xmlns:xlink="http://www.w3.org/1999/xlink"><linearGradient id="SVGID_1_" gradientUnits="userSpaceOnUse" x1="31.943" x2="31.943" y1="56.804" y2="7"><stop offset="0" stop-color="#9f2fff"/><stop offset="1" stop-color="#0bb1d3"/></linearGradient><path d="m52 53v3.804l10.887-6.804-10.887-6.804v3.804h-8.533c4.393-4 7.239-9.671 7.512-16h3.826l-6.805-10.887-6.805 10.887h3.775c-.229 3.934-1.805 7.509-4.268 10.28.186-.39.298-.82.298-1.28v-20.92c.546.653 1.053 1.348 1.507 2.091l.521.853 5.142-3.13-.521-.854c-4.217-6.913-11.563-11.04-19.649-11.04-12.347 0-22.453 9.78-22.979 22h-3.826l6.805 10.887 6.805-10.887h-3.775c.22-3.769 1.683-7.204 3.971-9.923v20.923c0 1.654 1.346 3 3 3h20c.44 0 .854-.1 1.231-.271-3 2.649-6.926 4.271-11.232 4.271h-17v2h17c10.477 0 19-8.523 19-19v-1h-2.195l3.195-5.113 3.195 5.113h-2.195v1c0 11.58-9.421 21-21 21h-27v2zm-31-30v-2h2v2h2v-2h2v2h2v-2h2v2h2v-2h2v2h2v-2h2v4h-22v-4h2v2zm-12 7v1h2.195l-3.195 5.113-3.195-5.113h2.195v-1c0-11.58 9.421-21 21-21 7.049 0 13.48 3.435 17.399 9.238l-1.728 1.052c-3.553-5.209-9.34-8.29-15.671-8.29-10.477 0-19 8.523-19 19zm6.062-11c3.121-3.665 7.759-6 12.938-6 5.059 0 9.725 2.207 12.932 6h-3.932v-2h-2v2h-2v-2h-2v2h-2v-2h-2v2h-2v-2h-2v2h-2v-2h-2v2zm22.938 22h-20c-.552 0-1-.449-1-1v-13h22v13c0 .551-.448 1-1 1zm2.937 8h13.063v-2.196l5.113 3.196-5.113 3.196v-2.196h-16.636c1.255-.562 2.449-1.232 3.573-2zm-31.937-2v2h-2v-2zm-4 0v2h-2v-2zm30-18h2v2h-2zm-4 0h2v2h-2zm-4 0h2v2h-2zm-4 0h2v2h-2zm-4 0h2v2h-2zm16 4h2v2h-2zm-4 0h2v2h-2zm-4 0h2v2h-2zm-4 0h2v2h-2zm-4 0h2v2h-2zm16 4h2v2h-2zm-4 0h2v2h-2zm-4 0h2v2h-2zm-4 0h2v2h-2zm-4 0h2v2h-2z" fill="url(#SVGID_1_)"/></svg>