<svg id="Layer_35" enable-background="new 0 0 64 64" height="512" viewBox="0 0 64 64" width="512" xmlns="http://www.w3.org/2000/svg" xmlns:xlink="http://www.w3.org/1999/xlink"><linearGradient id="SVGID_1_" gradientUnits="userSpaceOnUse" x1="32" x2="32" y1="63" y2="1"><stop offset="0" stop-color="#9f2fff"/><stop offset="1" stop-color="#0bb1d3"/></linearGradient><path d="m13 31.589c-2.928 1.19-5 4.061-5 7.411 0 2.777 1.424 5.227 3.579 6.661-2.311.709-4.428 1.975-6.186 3.732-2.833 2.834-4.393 6.6-4.393 10.607v3h30v-3c0-3.379-1.136-6.49-3.028-9h35.028v-50h-50zm32-16.589v10h-14v-10zm-14-2v-10h14v10zm-10.585 32.665c2.158-1.434 3.585-3.885 3.585-6.665h5v10h-2.836c-1.628-1.505-3.579-2.665-5.749-3.335zm-4.415 1.335c.807 0 1.594.084 2.361.225l-2.361 2.361-2.365-2.365c.773-.141 1.563-.221 2.365-.221zm-1.414 4-2.232 2.232-2.026-4.921c.359-.174.724-.332 1.097-.473zm1.414 1.414.137.137.768 8.449h-1.81l.768-8.449zm1.414-1.414 3.155-3.155c.375.142.742.3 1.1.474l-2.023 4.913zm13.586-12h14v10h-14zm0-2v-10h14v10zm16-10h14v10h-14zm0-2v-10h14v10zm-18 0h-14v-10h14zm0 2v10h-5.263c-.892-3.445-4.017-6-7.737-6-.339 0-.672.028-1 .069v-4.069zm-19 12c0-3.309 2.691-6 6-6s6 2.691 6 6-2.691 6-6 6-6-2.691-6-6zm-7 21c0-3.473 1.352-6.736 3.807-9.192.552-.552 1.15-1.039 1.777-1.477l3.062 7.437 2.007-2.007-.566 6.239h-5.087v-6h-2v6h-3zm26 1h-3v-6h-2v6h-5.087l-.567-6.24 2.007 2.007 3.06-7.432c3.372 2.352 5.587 6.252 5.587 10.665zm18-12v-10h14v10zm14-36h-14v-10h14zm-32-10v10h-14v-10zm-2 2h-10v6h10zm-2 4h-6v-2h6zm8-4v6h10v-6zm8 4h-6v-2h6zm18 2v-6h-10v6zm-8-4h6v2h-6zm-8 16v-6h-10v6zm-8-4h6v2h-6zm24-2v2h-10v-2zm-2 4h2v2h-2zm-4 0h2v2h-2zm-4 0h2v2h-2zm0 8v6h10v-6zm8 4h-6v-2h6zm-24 8v6h10v-6zm8 4h-6v-2h6zm8 2h10v-6h-10zm2-4h6v2h-6zm-32-24h-2v-2h2zm4 0h-2v-2h2zm4 0h-2v-2h2zm-10 4v-2h10v2zm26 6v2h-10v-2zm-10 4h10v2h-10zm-6-2h-2v-2h2zm-4 0h-2v-2h2zm4 4h-2v-2h2zm-8-4h-2v-2h2zm8 10v2h-2v-2zm-2 4h2v2h-2z" fill="url(#SVGID_1_)"/></svg>