<svg id="Layer_35" enable-background="new 0 0 64 64" height="512" viewBox="0 0 64 64" width="512" xmlns="http://www.w3.org/2000/svg" xmlns:xlink="http://www.w3.org/1999/xlink"><linearGradient id="SVGID_1_" gradientUnits="userSpaceOnUse" x1="32" x2="32" y1="63" y2=".586"><stop offset="0" stop-color="#9f2fff"/><stop offset="1" stop-color="#0bb1d3"/></linearGradient><path d="m22.193 44.988-1.781.908c-.296-.579-.55-1.187-.755-1.807l1.898-.629c.174.524.388 1.039.638 1.528zm18.974-11.07c1.199 1.804 1.833 3.907 1.833 6.082 0 6.065-4.935 11-11 11-3.531 0-6.871-1.714-8.937-4.584l-1.623 1.168c2.44 3.392 6.388 5.416 10.56 5.416 7.168 0 13-5.832 13-13 0-2.57-.75-5.056-2.167-7.189zm21.833-15.918c0 1.654-1.346 3-3 3-.356 0-.693-.073-1.01-.187l-5.433 6.641c.276.452.443.978.443 1.546 0 1.654-1.346 3-3 3-.891 0-1.684-.398-2.234-1.017l-1.389 1.786c.232.489.438.981.617 1.473l7.006.875v9.766l-7.006.876c-.179.491-.385.983-.617 1.473l4.339 5.579-6.905 6.905-5.579-4.339c-.489.232-.981.438-1.474.617l-.875 7.006h-9.766l-.875-7.006c-.492-.179-.984-.385-1.474-.617l-5.579 4.339-6.905-6.905 4.339-5.579c-.232-.489-.438-.981-.617-1.473l-7.006-.876v-9.766l5.79-.724-8.548-3.419c-.551.624-1.347 1.026-2.242 1.026-1.654 0-3-1.346-3-3s1.346-3 3-3 3 1.346 3 3c0 .04-.01.078-.012.118l9.562 3.825c.027-.058.046-.116.073-.174l-4.339-5.579 6.905-6.905 5.579 4.339c.489-.232.981-.438 1.474-.617l.875-7.007h9.766l.877 7.019c.004.002.008.003.012.005.077-.007.15-.024.228-.024.548 0 1.055.158 1.498.416l5.313-4.132 5.759 5.759c.142-.02.283-.043.43-.043.356 0 .693.073 1.01.187l5.433-6.64c-.275-.453-.443-.979-.443-1.547 0-1.654 1.346-3 3-3s3 1.346 3 3zm-58 11c0-.552-.449-1-1-1s-1 .448-1 1 .449 1 1 1 1-.448 1-1zm39.645-6.054-3.848 2.993c.062.162.114.328.147.502l7.428 1.143c.105-.194.228-.374.372-.54zm-6.645 3.054c-.551 0-1 .448-1 1s.449 1 1 1 1-.448 1-1-.449-1-1-1zm-19.409 6.041c.135-.018.269-.041.409-.041 1.654 0 3 1.346 3 3 0 .027-.007.052-.008.079l2.026.779c1.502-2.882 4.513-4.858 7.982-4.858.992 0 1.944.168 2.837.465l1.071-2.321c-.558-.545-.908-1.303-.908-2.144 0-.814.328-1.551.856-2.092l-.739-5.908h-6.234l-.814 6.511-.61.193c-.78.247-1.57.577-2.348.981l-.568.295-5.187-4.034-4.409 4.409zm6.409 7.959c0 3.859 3.14 7 7 7s7-3.141 7-7c0-2.455-1.273-4.615-3.192-5.865l-1.717 3.721c.559.545.909 1.303.909 2.144 0 1.654-1.346 3-3 3s-3-1.346-3-3c0-.027.007-.052.008-.079l-3.829-1.473c-.114.5-.179 1.018-.179 1.552zm6 0c0 .552.449 1 1 1s1-.448 1-1-.449-1-1-1-1 .448-1 1zm2.994-6.707c-.633-.188-1.301-.293-1.994-.293-2.618 0-4.902 1.447-6.102 3.581l3.836 1.475c.55-.641 1.356-1.056 2.266-1.056.093 0 .18.019.271.027zm-15.994 1.707c0 .552.449 1 1 1s1-.448 1-1-.449-1-1-1-1 .448-1 1zm27.02-2.458 2.396-3.081-6.787-1.045c-.508.938-1.489 1.584-2.629 1.584-.093 0-.18-.019-.271-.027l-1.078 2.337c2.601 1.579 4.349 4.43 4.349 7.69 0 4.963-4.038 9-9 9s-9-4.037-9-9c0-.787.112-1.546.302-2.274l-2.036-.783c-.55.642-1.356 1.057-2.266 1.057-1.217 0-2.262-.731-2.732-1.775l-5.268.658v6.234l6.511.813.193.611c.247.778.577 1.567.981 2.347l.295.569-4.034 5.187 4.409 4.409 5.187-4.034.568.295c.778.404 1.568.734 2.348.981l.61.193.815 6.512h6.234l.814-6.511.61-.193c.78-.247 1.57-.577 2.348-.981l.568-.295 5.187 4.034 4.409-4.409-4.034-5.187.295-.569c.405-.779.735-1.568.981-2.347l.193-.611 6.512-.814v-6.234l-6.511-.813-.193-.611c-.247-.778-.577-1.567-.981-2.347zm6.98-3.542c0-.552-.449-1-1-1s-1 .448-1 1 .449 1 1 1 1-.448 1-1zm9-11c0-.552-.449-1-1-1s-1 .448-1 1 .449 1 1 1 1-.448 1-1zm-52-7h-4.414l10.414 10.414 10.414-10.414h-4.414v-10h-2v12h1.586l-5.586 5.586-5.586-5.586h1.586v-8h-2zm2-10h-2v2h2zm44 10h4.414l-10.414-10.414-10.414 10.414h4.414v8h2v-10h-1.586l5.586-5.586 5.586 5.586h-1.586v6h2zm-2 8h2v-2h-2z" fill="url(#SVGID_1_)"/></svg>