<svg id="Layer_35" enable-background="new 0 0 64 64" height="512" viewBox="0 0 64 64" width="512" xmlns="http://www.w3.org/2000/svg" xmlns:xlink="http://www.w3.org/1999/xlink"><linearGradient id="SVGID_1_" gradientUnits="userSpaceOnUse" x1="32" x2="32" y1="63" y2="1"><stop offset="0" stop-color="#9f2fff"/><stop offset="1" stop-color="#0bb1d3"/></linearGradient><path d="m26.464 14.165-2.359-4.717 1.789-.895.813 1.626c1.012-1.89 3.004-3.179 5.293-3.179 3.309 0 6 2.691 6 6s-2.691 6-6 6c-1.31 0-2.555-.415-3.601-1.2l1.201-1.6c.696.524 1.526.8 2.4.8 2.206 0 4-1.794 4-4s-1.794-4-4-4c-1.732 0-3.197 1.113-3.751 2.657l2.509-.627.485 1.94zm36.536 43.835v5h-19-1-22-1-19v-5c0-5.129 3.241-9.504 7.777-11.218-2.263-1.415-3.777-3.922-3.777-6.782 0-4.411 3.589-8 8-8 3.719 0 6.845 2.555 7.737 6h1.263v-7.586l-12.878-12.878c-.724-.724-1.122-1.685-1.122-2.707 0-2.112 1.717-3.829 3.829-3.829 1.008 0 1.97.376 2.71 1.06l6.672 6.159c-.768-1.581-1.211-3.347-1.211-5.219 0-6.617 5.383-12 12-12s12 5.383 12 12c0 2.326-.676 4.492-1.826 6.333.288-.248.576-.497.848-.769l6.443-6.442c.723-.724 1.684-1.122 2.706-1.122 2.112 0 3.829 1.717 3.829 3.829 0 1.022-.398 1.984-1.122 2.707l-12.878 12.878v7.586h1.263c.892-3.445 4.017-6 7.737-6 4.411 0 8 3.589 8 8 0 2.86-1.514 5.367-3.777 6.782 4.536 1.714 7.777 6.089 7.777 11.218zm-18-18c0 3.309 2.691 6 6 6s6-2.691 6-6-2.691-6-6-6-6 2.691-6 6zm-2 0h-3c0 2.86-1.514 5.367-3.777 6.782 2.104.795 3.924 2.16 5.275 3.912 1.374-1.782 3.221-3.119 5.294-3.903-2.272-1.413-3.792-3.925-3.792-6.791zm-17 0c0 3.309 2.691 6 6 6s6-2.691 6-6-2.691-6-6-6-6 2.691-6 6zm4-14.17c0 1.058.702 1.977 1.633 2.138.606.104 1.193-.05 1.653-.437.454-.381.714-.939.714-1.531v-1.082c-.33.032-.666.036-1 .049v.033h-1c-.493 0-.976-.039-1.453-.097-.184-.019-.364-.052-.547-.077zm-8-12.83c0 5.11 3.854 9.33 8.807 9.922.444.044.892.066 1.343.07 5.444-.081 9.85-4.528 9.85-9.992 0-5.514-4.486-10-10-10s-10 4.486-10 10zm2 16.586v8.414h.263c.81-3.13 3.466-5.52 6.737-5.931v-.069h2v.069c3.271.411 5.926 2.8 6.737 5.931h.263v-8.414l13.464-13.464c.346-.346.536-.805.536-1.293 0-1.009-.82-1.829-1.829-1.829-.488 0-.947.19-1.293.536l-6.443 6.442c-2.349 2.35-5.265 3.921-8.436 4.614v1.408c0 1.184-.52 2.299-1.426 3.062-.726.611-1.639.938-2.58.938-.233 0-.468-.02-.702-.061-1.875-.326-3.291-2.092-3.291-4.109v-1.394c-2.707-.702-5.221-2.049-7.317-3.983l-7.5-6.924c-.37-.341-.851-.529-1.354-.529-1.009 0-1.829.82-1.829 1.829 0 .488.19.947.536 1.293zm-3 10.414c0 2.866-1.52 5.378-3.792 6.791 2.073.785 3.92 2.121 5.294 3.903 1.351-1.752 3.171-3.117 5.275-3.912-2.263-1.415-3.777-3.922-3.777-6.782zm-8 6c3.309 0 6-2.691 6-6s-2.691-6-6-6-6 2.691-6 6 2.691 6 6 6zm7 15v-3c0-1.972.487-3.829 1.333-5.472-1.843-2.797-4.977-4.528-8.333-4.528-5.514 0-10 4.486-10 10v3zm22-3c0-5.514-4.486-10-10-10s-10 4.486-10 10v3h20zm19 0c0-5.514-4.486-10-10-10-3.356 0-6.49 1.731-8.333 4.528.846 1.643 1.333 3.5 1.333 5.472v3h17zm-9-28v-2h-2v2zm2 0h2v-2h-2zm6-2h-2v2h2zm-54 0h-2v2h2zm2 0v2h2v-2zm6 0h-2v2h2z" fill="url(#SVGID_1_)"/></svg>